<mxfile host="app.diagrams.net" agent="Mozilla/5.0 (Windows NT 10.0; Win64; x64) AppleWebKit/537.36 (KHTML, like Gecko) Chrome/132.0.0.0 Safari/537.36" version="26.0.10">
  <diagram name="Pagina-1" id="HlKg33FKlqtCtgiECOWy">
    <mxGraphModel dx="808" dy="428" grid="1" gridSize="10" guides="1" tooltips="1" connect="1" arrows="1" fold="1" page="1" pageScale="1" pageWidth="827" pageHeight="1169" math="0" shadow="0">
      <root>
        <mxCell id="0" />
        <mxCell id="1" parent="0" />
        <mxCell id="F73e94IUMuDKOJq4lxd--29" style="edgeStyle=orthogonalEdgeStyle;rounded=0;orthogonalLoop=1;jettySize=auto;html=1;exitX=0.5;exitY=1;exitDx=0;exitDy=0;entryX=0.5;entryY=0;entryDx=0;entryDy=0;" edge="1" parent="1" source="F73e94IUMuDKOJq4lxd--1" target="F73e94IUMuDKOJq4lxd--2">
          <mxGeometry relative="1" as="geometry" />
        </mxCell>
        <mxCell id="F73e94IUMuDKOJq4lxd--1" value="Start" style="ellipse;whiteSpace=wrap;html=1;" vertex="1" parent="1">
          <mxGeometry x="340" y="10" width="120" height="80" as="geometry" />
        </mxCell>
        <mxCell id="F73e94IUMuDKOJq4lxd--30" style="edgeStyle=orthogonalEdgeStyle;rounded=0;orthogonalLoop=1;jettySize=auto;html=1;exitX=0.5;exitY=1;exitDx=0;exitDy=0;entryX=0.5;entryY=0;entryDx=0;entryDy=0;" edge="1" parent="1" source="F73e94IUMuDKOJq4lxd--2" target="F73e94IUMuDKOJq4lxd--3">
          <mxGeometry relative="1" as="geometry" />
        </mxCell>
        <mxCell id="F73e94IUMuDKOJq4lxd--2" value="read temp,&lt;div&gt;read giorno&lt;/div&gt;" style="shape=parallelogram;perimeter=parallelogramPerimeter;whiteSpace=wrap;html=1;fixedSize=1;" vertex="1" parent="1">
          <mxGeometry x="340" y="120" width="120" height="60" as="geometry" />
        </mxCell>
        <mxCell id="F73e94IUMuDKOJq4lxd--31" style="edgeStyle=orthogonalEdgeStyle;rounded=0;orthogonalLoop=1;jettySize=auto;html=1;exitX=0.5;exitY=1;exitDx=0;exitDy=0;entryX=0.5;entryY=0;entryDx=0;entryDy=0;" edge="1" parent="1" source="F73e94IUMuDKOJq4lxd--3" target="F73e94IUMuDKOJq4lxd--4">
          <mxGeometry relative="1" as="geometry" />
        </mxCell>
        <mxCell id="F73e94IUMuDKOJq4lxd--3" value="temp =0&lt;div&gt;giorno =0&lt;/div&gt;" style="rounded=0;whiteSpace=wrap;html=1;" vertex="1" parent="1">
          <mxGeometry x="340" y="210" width="120" height="60" as="geometry" />
        </mxCell>
        <mxCell id="F73e94IUMuDKOJq4lxd--32" style="edgeStyle=orthogonalEdgeStyle;rounded=0;orthogonalLoop=1;jettySize=auto;html=1;exitX=0.5;exitY=1;exitDx=0;exitDy=0;entryX=0.5;entryY=0;entryDx=0;entryDy=0;" edge="1" parent="1" source="F73e94IUMuDKOJq4lxd--4" target="F73e94IUMuDKOJq4lxd--5">
          <mxGeometry relative="1" as="geometry" />
        </mxCell>
        <mxCell id="F73e94IUMuDKOJq4lxd--4" value="temp media =0" style="rounded=0;whiteSpace=wrap;html=1;" vertex="1" parent="1">
          <mxGeometry x="340" y="290" width="120" height="60" as="geometry" />
        </mxCell>
        <mxCell id="F73e94IUMuDKOJq4lxd--5" value="temp max =0&lt;div&gt;temp min =0&lt;/div&gt;" style="rounded=0;whiteSpace=wrap;html=1;" vertex="1" parent="1">
          <mxGeometry x="340" y="380" width="120" height="60" as="geometry" />
        </mxCell>
        <mxCell id="F73e94IUMuDKOJq4lxd--24" value="True" style="edgeStyle=orthogonalEdgeStyle;rounded=0;orthogonalLoop=1;jettySize=auto;html=1;exitX=0.5;exitY=1;exitDx=0;exitDy=0;" edge="1" parent="1" source="F73e94IUMuDKOJq4lxd--6">
          <mxGeometry relative="1" as="geometry">
            <mxPoint x="400" y="580" as="targetPoint" />
          </mxGeometry>
        </mxCell>
        <mxCell id="F73e94IUMuDKOJq4lxd--43" style="edgeStyle=orthogonalEdgeStyle;rounded=0;orthogonalLoop=1;jettySize=auto;html=1;entryX=0;entryY=0.5;entryDx=0;entryDy=0;" edge="1" parent="1" source="F73e94IUMuDKOJq4lxd--6" target="F73e94IUMuDKOJq4lxd--41">
          <mxGeometry relative="1" as="geometry" />
        </mxCell>
        <mxCell id="F73e94IUMuDKOJq4lxd--45" value="False" style="edgeLabel;html=1;align=center;verticalAlign=middle;resizable=0;points=[];" vertex="1" connectable="0" parent="F73e94IUMuDKOJq4lxd--43">
          <mxGeometry x="0.0462" y="2" relative="1" as="geometry">
            <mxPoint as="offset" />
          </mxGeometry>
        </mxCell>
        <mxCell id="F73e94IUMuDKOJq4lxd--6" value="g&amp;lt;=7" style="rhombus;whiteSpace=wrap;html=1;" vertex="1" parent="1">
          <mxGeometry x="360" y="470" width="90" height="80" as="geometry" />
        </mxCell>
        <mxCell id="F73e94IUMuDKOJq4lxd--7" value="" style="rhombus;whiteSpace=wrap;html=1;" vertex="1" parent="1">
          <mxGeometry x="470" y="660" width="80" height="80" as="geometry" />
        </mxCell>
        <mxCell id="F73e94IUMuDKOJq4lxd--8" value="End" style="ellipse;whiteSpace=wrap;html=1;aspect=fixed;" vertex="1" parent="1">
          <mxGeometry x="374" y="2090" width="80" height="80" as="geometry" />
        </mxCell>
        <mxCell id="F73e94IUMuDKOJq4lxd--9" value="read n" style="shape=parallelogram;perimeter=parallelogramPerimeter;whiteSpace=wrap;html=1;fixedSize=1;" vertex="1" parent="1">
          <mxGeometry x="340" y="584" width="120" height="60" as="geometry" />
        </mxCell>
        <mxCell id="F73e94IUMuDKOJq4lxd--10" value="" style="rhombus;whiteSpace=wrap;html=1;" vertex="1" parent="1">
          <mxGeometry x="210" y="660" width="80" height="80" as="geometry" />
        </mxCell>
        <mxCell id="F73e94IUMuDKOJq4lxd--11" value="" style="rounded=0;whiteSpace=wrap;html=1;" vertex="1" parent="1">
          <mxGeometry x="450" y="750" width="120" height="60" as="geometry" />
        </mxCell>
        <mxCell id="F73e94IUMuDKOJq4lxd--12" value="" style="rounded=0;whiteSpace=wrap;html=1;" vertex="1" parent="1">
          <mxGeometry x="200" y="760" width="120" height="60" as="geometry" />
        </mxCell>
        <mxCell id="F73e94IUMuDKOJq4lxd--13" value="" style="rounded=0;whiteSpace=wrap;html=1;" vertex="1" parent="1">
          <mxGeometry x="190" y="860" width="120" height="60" as="geometry" />
        </mxCell>
        <mxCell id="F73e94IUMuDKOJq4lxd--14" value="" style="rounded=0;whiteSpace=wrap;html=1;" vertex="1" parent="1">
          <mxGeometry x="440" y="860" width="120" height="60" as="geometry" />
        </mxCell>
        <mxCell id="F73e94IUMuDKOJq4lxd--15" value="" style="rhombus;whiteSpace=wrap;html=1;" vertex="1" parent="1">
          <mxGeometry x="170" y="1020" width="80" height="80" as="geometry" />
        </mxCell>
        <mxCell id="F73e94IUMuDKOJq4lxd--16" value="" style="rhombus;whiteSpace=wrap;html=1;" vertex="1" parent="1">
          <mxGeometry x="320" y="1020" width="80" height="80" as="geometry" />
        </mxCell>
        <mxCell id="F73e94IUMuDKOJq4lxd--17" value="" style="rhombus;whiteSpace=wrap;html=1;" vertex="1" parent="1">
          <mxGeometry x="470" y="1020" width="80" height="80" as="geometry" />
        </mxCell>
        <mxCell id="F73e94IUMuDKOJq4lxd--18" value="" style="rhombus;whiteSpace=wrap;html=1;" vertex="1" parent="1">
          <mxGeometry x="620" y="1020" width="80" height="80" as="geometry" />
        </mxCell>
        <mxCell id="F73e94IUMuDKOJq4lxd--37" style="edgeStyle=orthogonalEdgeStyle;rounded=0;orthogonalLoop=1;jettySize=auto;html=1;exitX=0.5;exitY=1;exitDx=0;exitDy=0;" edge="1" parent="1" source="F73e94IUMuDKOJq4lxd--19">
          <mxGeometry relative="1" as="geometry">
            <mxPoint x="200" y="1280" as="targetPoint" />
          </mxGeometry>
        </mxCell>
        <mxCell id="F73e94IUMuDKOJq4lxd--19" value="" style="shape=parallelogram;perimeter=parallelogramPerimeter;whiteSpace=wrap;html=1;fixedSize=1;" vertex="1" parent="1">
          <mxGeometry x="140" y="1140" width="120" height="60" as="geometry" />
        </mxCell>
        <mxCell id="F73e94IUMuDKOJq4lxd--38" style="edgeStyle=orthogonalEdgeStyle;rounded=0;orthogonalLoop=1;jettySize=auto;html=1;" edge="1" parent="1" source="F73e94IUMuDKOJq4lxd--20">
          <mxGeometry relative="1" as="geometry">
            <mxPoint x="350" y="1280" as="targetPoint" />
          </mxGeometry>
        </mxCell>
        <mxCell id="F73e94IUMuDKOJq4lxd--20" value="" style="shape=parallelogram;perimeter=parallelogramPerimeter;whiteSpace=wrap;html=1;fixedSize=1;" vertex="1" parent="1">
          <mxGeometry x="290" y="1140" width="120" height="60" as="geometry" />
        </mxCell>
        <mxCell id="F73e94IUMuDKOJq4lxd--39" style="edgeStyle=orthogonalEdgeStyle;rounded=0;orthogonalLoop=1;jettySize=auto;html=1;" edge="1" parent="1" source="F73e94IUMuDKOJq4lxd--21">
          <mxGeometry relative="1" as="geometry">
            <mxPoint x="500" y="1280" as="targetPoint" />
          </mxGeometry>
        </mxCell>
        <mxCell id="F73e94IUMuDKOJq4lxd--21" value="" style="shape=parallelogram;perimeter=parallelogramPerimeter;whiteSpace=wrap;html=1;fixedSize=1;" vertex="1" parent="1">
          <mxGeometry x="440" y="1130" width="120" height="60" as="geometry" />
        </mxCell>
        <mxCell id="F73e94IUMuDKOJq4lxd--40" style="edgeStyle=orthogonalEdgeStyle;rounded=0;orthogonalLoop=1;jettySize=auto;html=1;" edge="1" parent="1" source="F73e94IUMuDKOJq4lxd--22">
          <mxGeometry relative="1" as="geometry">
            <mxPoint x="660" y="1280" as="targetPoint" />
          </mxGeometry>
        </mxCell>
        <mxCell id="F73e94IUMuDKOJq4lxd--22" value="" style="shape=parallelogram;perimeter=parallelogramPerimeter;whiteSpace=wrap;html=1;fixedSize=1;" vertex="1" parent="1">
          <mxGeometry x="600" y="1130" width="120" height="60" as="geometry" />
        </mxCell>
        <mxCell id="F73e94IUMuDKOJq4lxd--26" style="edgeStyle=orthogonalEdgeStyle;rounded=0;orthogonalLoop=1;jettySize=auto;html=1;exitX=0.5;exitY=1;exitDx=0;exitDy=0;entryX=0.514;entryY=0.086;entryDx=0;entryDy=0;entryPerimeter=0;" edge="1" parent="1" source="F73e94IUMuDKOJq4lxd--5" target="F73e94IUMuDKOJq4lxd--6">
          <mxGeometry relative="1" as="geometry" />
        </mxCell>
        <mxCell id="F73e94IUMuDKOJq4lxd--34" value="" style="endArrow=none;html=1;rounded=0;" edge="1" parent="1">
          <mxGeometry width="50" height="50" relative="1" as="geometry">
            <mxPoint x="10" y="510" as="sourcePoint" />
            <mxPoint x="360" y="510" as="targetPoint" />
          </mxGeometry>
        </mxCell>
        <mxCell id="F73e94IUMuDKOJq4lxd--35" value="" style="endArrow=none;html=1;rounded=0;" edge="1" parent="1">
          <mxGeometry width="50" height="50" relative="1" as="geometry">
            <mxPoint x="10" y="1280" as="sourcePoint" />
            <mxPoint x="10" y="510" as="targetPoint" />
          </mxGeometry>
        </mxCell>
        <mxCell id="F73e94IUMuDKOJq4lxd--36" value="" style="endArrow=none;html=1;rounded=0;" edge="1" parent="1">
          <mxGeometry width="50" height="50" relative="1" as="geometry">
            <mxPoint x="10" y="1280" as="sourcePoint" />
            <mxPoint x="660" y="1280" as="targetPoint" />
          </mxGeometry>
        </mxCell>
        <mxCell id="F73e94IUMuDKOJq4lxd--41" value="write&amp;nbsp;&lt;div&gt;&lt;br&gt;&lt;/div&gt;" style="shape=parallelogram;perimeter=parallelogramPerimeter;whiteSpace=wrap;html=1;fixedSize=1;" vertex="1" parent="1">
          <mxGeometry x="660" y="480" width="120" height="60" as="geometry" />
        </mxCell>
        <mxCell id="F73e94IUMuDKOJq4lxd--42" value="end" style="ellipse;whiteSpace=wrap;html=1;aspect=fixed;" vertex="1" parent="1">
          <mxGeometry x="670" y="620" width="80" height="80" as="geometry" />
        </mxCell>
        <mxCell id="F73e94IUMuDKOJq4lxd--44" style="edgeStyle=orthogonalEdgeStyle;rounded=0;orthogonalLoop=1;jettySize=auto;html=1;entryX=0.617;entryY=0.026;entryDx=0;entryDy=0;entryPerimeter=0;" edge="1" parent="1" source="F73e94IUMuDKOJq4lxd--41" target="F73e94IUMuDKOJq4lxd--42">
          <mxGeometry relative="1" as="geometry" />
        </mxCell>
      </root>
    </mxGraphModel>
  </diagram>
</mxfile>
